<?xml version="1.0" standalone="no"?>
<!DOCTYPE svg PUBLIC "-//W3C//DTD SVG 20010904//EN"
 "http://www.w3.org/TR/2001/REC-SVG-20010904/DTD/svg10.dtd">
<svg version="1.0" xmlns="http://www.w3.org/2000/svg"
 width="496.000000pt" height="496.000000pt" viewBox="0 0 496.000000 496.000000"
 preserveAspectRatio="xMidYMid meet">
<metadata>
Created by potrace 1.11, written by Peter Selinger 2001-2013
</metadata>
<g transform="translate(0.000000,496.000000) scale(0.100000,-0.100000)"
fill="#000000" stroke="none">
<path d="M2440 4370 c-135 -10 -221 -28 -430 -87 -136 -38 -339 -133 -475
-221 -90 -59 -205 -174 -235 -237 -35 -73 -35 -135 -1 -385 28 -202 37 -293
56 -512 3 -36 5 -165 5 -287 1 -202 -1 -223 -20 -260 -21 -42 -27 -106 -10
-116 13 -8 12 -52 -3 -94 -10 -27 -22 -37 -72 -58 -187 -76 -343 -112 -520
-119 -191 -8 -290 -43 -335 -117 -27 -44 -27 -146 1 -207 75 -166 384 -443
750 -673 284 -178 568 -291 884 -351 85 -17 330 -54 355 -54 8 0 65 -4 125 -8
499 -35 969 34 1303 191 382 181 578 411 610 715 33 330 -142 636 -495 865
-55 35 -63 45 -69 80 -9 58 -29 90 -74 122 -22 15 -40 31 -40 34 0 4 16 19 35
33 74 57 87 142 32 202 -28 31 -40 37 -80 38 -26 1 -49 5 -52 7 -2 3 -7 23
-10 44 -2 23 -15 49 -30 65 l-26 27 16 59 c9 33 48 155 87 273 66 198 70 218
66 280 -12 165 -130 346 -316 486 -264 198 -644 296 -1032 265z"/>
</g>
</svg>
